<mxfile host="app.diagrams.net" agent="Mozilla/5.0 (Windows NT 10.0; Win64; x64) AppleWebKit/537.36 (KHTML, like Gecko) Chrome/126.0.0.0 Safari/537.36" version="24.7.8">
  <diagram name="PÃ¡gina-1" id="bfxUe2o_Z46STegCqssy">
    <mxGraphModel dx="630" dy="342" grid="1" gridSize="10" guides="1" tooltips="1" connect="1" arrows="1" fold="1" page="1" pageScale="1" pageWidth="827" pageHeight="1169" math="0" shadow="0">
      <root>
        <mxCell id="0" />
        <mxCell id="1" parent="0" />
        <mxCell id="PICA7tcWs6j3xRz3gB3K-1" value="Medico" style="rounded=0;whiteSpace=wrap;html=1;labelBackgroundColor=none;" vertex="1" parent="1">
          <mxGeometry x="270" y="418" width="120" height="40" as="geometry" />
        </mxCell>
        <mxCell id="PICA7tcWs6j3xRz3gB3K-2" value="Consulta" style="rounded=0;whiteSpace=wrap;html=1;labelBackgroundColor=none;" vertex="1" parent="1">
          <mxGeometry x="710" y="418" width="120" height="40" as="geometry" />
        </mxCell>
        <mxCell id="PICA7tcWs6j3xRz3gB3K-3" value="Paciente" style="rounded=0;whiteSpace=wrap;html=1;labelBackgroundColor=none;" vertex="1" parent="1">
          <mxGeometry x="710" y="628" width="120" height="40" as="geometry" />
        </mxCell>
        <mxCell id="PICA7tcWs6j3xRz3gB3K-4" value="Convenio" style="rounded=0;whiteSpace=wrap;html=1;labelBackgroundColor=none;" vertex="1" parent="1">
          <mxGeometry x="270" y="628" width="120" height="40" as="geometry" />
        </mxCell>
        <mxCell id="PICA7tcWs6j3xRz3gB3K-5" value="realizar" style="rhombus;whiteSpace=wrap;html=1;labelBackgroundColor=none;" vertex="1" parent="1">
          <mxGeometry x="490" y="413" width="120" height="50" as="geometry" />
        </mxCell>
        <mxCell id="PICA7tcWs6j3xRz3gB3K-6" value="marcar" style="rhombus;whiteSpace=wrap;html=1;labelBackgroundColor=none;" vertex="1" parent="1">
          <mxGeometry x="710" y="518" width="120" height="50" as="geometry" />
        </mxCell>
        <mxCell id="PICA7tcWs6j3xRz3gB3K-7" value="possui" style="rhombus;whiteSpace=wrap;html=1;labelBackgroundColor=none;" vertex="1" parent="1">
          <mxGeometry x="490" y="623" width="120" height="50" as="geometry" />
        </mxCell>
        <mxCell id="PICA7tcWs6j3xRz3gB3K-8" value="" style="endArrow=none;html=1;rounded=0;labelBackgroundColor=none;fontColor=default;" edge="1" parent="1">
          <mxGeometry width="50" height="50" relative="1" as="geometry">
            <mxPoint x="390" y="437.5" as="sourcePoint" />
            <mxPoint x="490" y="437.5" as="targetPoint" />
          </mxGeometry>
        </mxCell>
        <mxCell id="PICA7tcWs6j3xRz3gB3K-10" value="" style="endArrow=none;html=1;rounded=0;labelBackgroundColor=none;fontColor=default;" edge="1" parent="1">
          <mxGeometry width="50" height="50" relative="1" as="geometry">
            <mxPoint x="610" y="437.5" as="sourcePoint" />
            <mxPoint x="710" y="437.5" as="targetPoint" />
          </mxGeometry>
        </mxCell>
        <mxCell id="PICA7tcWs6j3xRz3gB3K-11" value="" style="endArrow=none;html=1;rounded=0;labelBackgroundColor=none;fontColor=default;" edge="1" parent="1">
          <mxGeometry width="50" height="50" relative="1" as="geometry">
            <mxPoint x="769.5" y="458" as="sourcePoint" />
            <mxPoint x="770" y="518" as="targetPoint" />
          </mxGeometry>
        </mxCell>
        <mxCell id="PICA7tcWs6j3xRz3gB3K-13" value="" style="endArrow=none;html=1;rounded=0;labelBackgroundColor=none;fontColor=default;" edge="1" parent="1">
          <mxGeometry width="50" height="50" relative="1" as="geometry">
            <mxPoint x="769.5" y="568" as="sourcePoint" />
            <mxPoint x="770" y="628" as="targetPoint" />
          </mxGeometry>
        </mxCell>
        <mxCell id="PICA7tcWs6j3xRz3gB3K-17" value="atenter" style="rhombus;whiteSpace=wrap;html=1;labelBackgroundColor=none;" vertex="1" parent="1">
          <mxGeometry x="270" y="518" width="120" height="50" as="geometry" />
        </mxCell>
        <mxCell id="PICA7tcWs6j3xRz3gB3K-18" value="" style="endArrow=none;html=1;rounded=0;labelBackgroundColor=none;fontColor=default;" edge="1" parent="1">
          <mxGeometry width="50" height="50" relative="1" as="geometry">
            <mxPoint x="329.5" y="458" as="sourcePoint" />
            <mxPoint x="330" y="518" as="targetPoint" />
          </mxGeometry>
        </mxCell>
        <mxCell id="PICA7tcWs6j3xRz3gB3K-19" value="" style="endArrow=none;html=1;rounded=0;labelBackgroundColor=none;fontColor=default;" edge="1" parent="1">
          <mxGeometry width="50" height="50" relative="1" as="geometry">
            <mxPoint x="329.5" y="568" as="sourcePoint" />
            <mxPoint x="330" y="628" as="targetPoint" />
          </mxGeometry>
        </mxCell>
        <mxCell id="PICA7tcWs6j3xRz3gB3K-20" value="" style="endArrow=none;html=1;rounded=0;labelBackgroundColor=none;fontColor=default;" edge="1" parent="1">
          <mxGeometry width="50" height="50" relative="1" as="geometry">
            <mxPoint x="390" y="647.5" as="sourcePoint" />
            <mxPoint x="490" y="647.5" as="targetPoint" />
          </mxGeometry>
        </mxCell>
        <mxCell id="PICA7tcWs6j3xRz3gB3K-21" value="" style="endArrow=none;html=1;rounded=0;labelBackgroundColor=none;fontColor=default;" edge="1" parent="1">
          <mxGeometry width="50" height="50" relative="1" as="geometry">
            <mxPoint x="610" y="647.5" as="sourcePoint" />
            <mxPoint x="710" y="647.5" as="targetPoint" />
          </mxGeometry>
        </mxCell>
        <mxCell id="PICA7tcWs6j3xRz3gB3K-22" value="" style="endArrow=oval;html=1;rounded=0;startArrow=none;startFill=0;endFill=1;" edge="1" parent="1">
          <mxGeometry width="50" height="50" relative="1" as="geometry">
            <mxPoint x="290.03999999999996" y="288" as="sourcePoint" />
            <mxPoint x="330.03999999999996" y="288" as="targetPoint" />
          </mxGeometry>
        </mxCell>
        <mxCell id="PICA7tcWs6j3xRz3gB3K-23" value="" style="endArrow=oval;html=1;rounded=0;startArrow=none;startFill=0;endFill=0;" edge="1" parent="1">
          <mxGeometry width="50" height="50" relative="1" as="geometry">
            <mxPoint x="290.03999999999996" y="310" as="sourcePoint" />
            <mxPoint x="330.03999999999996" y="310" as="targetPoint" />
          </mxGeometry>
        </mxCell>
        <mxCell id="PICA7tcWs6j3xRz3gB3K-24" value="" style="endArrow=oval;html=1;rounded=0;startArrow=none;startFill=0;endFill=0;" edge="1" parent="1">
          <mxGeometry width="50" height="50" relative="1" as="geometry">
            <mxPoint x="290.03999999999996" y="330" as="sourcePoint" />
            <mxPoint x="330.03999999999996" y="330" as="targetPoint" />
          </mxGeometry>
        </mxCell>
        <mxCell id="PICA7tcWs6j3xRz3gB3K-25" value="" style="endArrow=oval;html=1;rounded=0;startArrow=none;startFill=0;endFill=0;" edge="1" parent="1">
          <mxGeometry width="50" height="50" relative="1" as="geometry">
            <mxPoint x="290.03999999999996" y="352" as="sourcePoint" />
            <mxPoint x="330.03999999999996" y="352" as="targetPoint" />
          </mxGeometry>
        </mxCell>
        <mxCell id="PICA7tcWs6j3xRz3gB3K-26" value="" style="endArrow=oval;html=1;rounded=0;startArrow=none;startFill=0;endFill=0;" edge="1" parent="1">
          <mxGeometry width="50" height="50" relative="1" as="geometry">
            <mxPoint x="290.03999999999996" y="372" as="sourcePoint" />
            <mxPoint x="330.03999999999996" y="372" as="targetPoint" />
          </mxGeometry>
        </mxCell>
        <mxCell id="PICA7tcWs6j3xRz3gB3K-27" value="" style="endArrow=oval;html=1;rounded=0;startArrow=none;startFill=0;endFill=0;" edge="1" parent="1">
          <mxGeometry width="50" height="50" relative="1" as="geometry">
            <mxPoint x="290.03999999999996" y="392" as="sourcePoint" />
            <mxPoint x="330.03999999999996" y="392" as="targetPoint" />
          </mxGeometry>
        </mxCell>
        <mxCell id="PICA7tcWs6j3xRz3gB3K-28" value="" style="endArrow=none;html=1;rounded=0;exitX=0.333;exitY=0;exitDx=0;exitDy=0;exitPerimeter=0;" edge="1" parent="1">
          <mxGeometry width="50" height="50" relative="1" as="geometry">
            <mxPoint x="290" y="418" as="sourcePoint" />
            <mxPoint x="290" y="288" as="targetPoint" />
          </mxGeometry>
        </mxCell>
        <mxCell id="PICA7tcWs6j3xRz3gB3K-29" value="CPF (PK)" style="text;html=1;align=center;verticalAlign=middle;resizable=0;points=[];autosize=1;strokeColor=none;fillColor=none;" vertex="1" parent="1">
          <mxGeometry x="327.03999999999996" y="273" width="70" height="30" as="geometry" />
        </mxCell>
        <mxCell id="PICA7tcWs6j3xRz3gB3K-30" value="especialidade" style="text;html=1;align=center;verticalAlign=middle;resizable=0;points=[];autosize=1;strokeColor=none;fillColor=none;" vertex="1" parent="1">
          <mxGeometry x="325.03999999999996" y="295" width="100" height="30" as="geometry" />
        </mxCell>
        <mxCell id="PICA7tcWs6j3xRz3gB3K-31" value="nome" style="text;html=1;align=center;verticalAlign=middle;resizable=0;points=[];autosize=1;strokeColor=none;fillColor=none;" vertex="1" parent="1">
          <mxGeometry x="329.03999999999996" y="316" width="50" height="30" as="geometry" />
        </mxCell>
        <mxCell id="PICA7tcWs6j3xRz3gB3K-32" value="telefone" style="text;html=1;align=center;verticalAlign=middle;resizable=0;points=[];autosize=1;strokeColor=none;fillColor=none;" vertex="1" parent="1">
          <mxGeometry x="325" y="338" width="70" height="30" as="geometry" />
        </mxCell>
        <mxCell id="PICA7tcWs6j3xRz3gB3K-33" value="e-mail" style="text;html=1;align=center;verticalAlign=middle;resizable=0;points=[];autosize=1;strokeColor=none;fillColor=none;" vertex="1" parent="1">
          <mxGeometry x="325.03999999999996" y="356" width="60" height="30" as="geometry" />
        </mxCell>
        <mxCell id="PICA7tcWs6j3xRz3gB3K-34" value="endereÃ§o" style="text;html=1;align=center;verticalAlign=middle;resizable=0;points=[];autosize=1;strokeColor=none;fillColor=none;" vertex="1" parent="1">
          <mxGeometry x="328" y="378" width="70" height="30" as="geometry" />
        </mxCell>
        <mxCell id="PICA7tcWs6j3xRz3gB3K-35" value="" style="endArrow=oval;html=1;rounded=0;startArrow=none;startFill=0;endFill=1;" edge="1" parent="1">
          <mxGeometry width="50" height="50" relative="1" as="geometry">
            <mxPoint x="416.03999999999996" y="287" as="sourcePoint" />
            <mxPoint x="456.03999999999996" y="287" as="targetPoint" />
          </mxGeometry>
        </mxCell>
        <mxCell id="PICA7tcWs6j3xRz3gB3K-36" value="" style="endArrow=oval;html=1;rounded=0;startArrow=none;startFill=0;endFill=0;" edge="1" parent="1">
          <mxGeometry width="50" height="50" relative="1" as="geometry">
            <mxPoint x="416.03999999999996" y="311" as="sourcePoint" />
            <mxPoint x="456.03999999999996" y="311" as="targetPoint" />
          </mxGeometry>
        </mxCell>
        <mxCell id="PICA7tcWs6j3xRz3gB3K-37" value="" style="endArrow=oval;html=1;rounded=0;startArrow=none;startFill=0;endFill=0;" edge="1" parent="1">
          <mxGeometry width="50" height="50" relative="1" as="geometry">
            <mxPoint x="416.03999999999996" y="331" as="sourcePoint" />
            <mxPoint x="456.03999999999996" y="331" as="targetPoint" />
          </mxGeometry>
        </mxCell>
        <mxCell id="PICA7tcWs6j3xRz3gB3K-38" value="" style="endArrow=oval;html=1;rounded=0;startArrow=none;startFill=0;endFill=0;" edge="1" parent="1">
          <mxGeometry width="50" height="50" relative="1" as="geometry">
            <mxPoint x="416.03999999999996" y="353" as="sourcePoint" />
            <mxPoint x="456.03999999999996" y="353" as="targetPoint" />
          </mxGeometry>
        </mxCell>
        <mxCell id="PICA7tcWs6j3xRz3gB3K-39" value="" style="endArrow=oval;html=1;rounded=0;startArrow=none;startFill=0;endFill=0;" edge="1" parent="1">
          <mxGeometry width="50" height="50" relative="1" as="geometry">
            <mxPoint x="416.03999999999996" y="373" as="sourcePoint" />
            <mxPoint x="456.03999999999996" y="373" as="targetPoint" />
          </mxGeometry>
        </mxCell>
        <mxCell id="PICA7tcWs6j3xRz3gB3K-40" value="" style="endArrow=oval;html=1;rounded=0;startArrow=none;startFill=0;endFill=0;" edge="1" parent="1" source="PICA7tcWs6j3xRz3gB3K-34">
          <mxGeometry width="50" height="50" relative="1" as="geometry">
            <mxPoint x="416.03999999999996" y="393" as="sourcePoint" />
            <mxPoint x="456.03999999999996" y="393" as="targetPoint" />
          </mxGeometry>
        </mxCell>
        <mxCell id="PICA7tcWs6j3xRz3gB3K-41" value="" style="endArrow=none;html=1;rounded=0;" edge="1" parent="1">
          <mxGeometry width="50" height="50" relative="1" as="geometry">
            <mxPoint x="416" y="407" as="sourcePoint" />
            <mxPoint x="416" y="287" as="targetPoint" />
          </mxGeometry>
        </mxCell>
        <mxCell id="PICA7tcWs6j3xRz3gB3K-42" value="rua" style="text;html=1;align=center;verticalAlign=middle;resizable=0;points=[];autosize=1;strokeColor=none;fillColor=none;" vertex="1" parent="1">
          <mxGeometry x="451.99999999999994" y="272" width="40" height="30" as="geometry" />
        </mxCell>
        <mxCell id="PICA7tcWs6j3xRz3gB3K-44" value="bairro" style="text;html=1;align=center;verticalAlign=middle;resizable=0;points=[];autosize=1;strokeColor=none;fillColor=none;" vertex="1" parent="1">
          <mxGeometry x="454" y="338" width="50" height="30" as="geometry" />
        </mxCell>
        <mxCell id="PICA7tcWs6j3xRz3gB3K-45" value="CEP" style="text;html=1;align=center;verticalAlign=middle;resizable=0;points=[];autosize=1;strokeColor=none;fillColor=none;" vertex="1" parent="1">
          <mxGeometry x="449.99999999999994" y="358" width="50" height="30" as="geometry" />
        </mxCell>
        <mxCell id="PICA7tcWs6j3xRz3gB3K-46" value="cidade" style="text;html=1;align=center;verticalAlign=middle;resizable=0;points=[];autosize=1;strokeColor=none;fillColor=none;" vertex="1" parent="1">
          <mxGeometry x="451" y="376" width="60" height="30" as="geometry" />
        </mxCell>
        <mxCell id="PICA7tcWs6j3xRz3gB3K-49" value="nÃºmero" style="text;html=1;align=center;verticalAlign=middle;resizable=0;points=[];autosize=1;strokeColor=none;fillColor=none;" vertex="1" parent="1">
          <mxGeometry x="452.99999999999994" y="295" width="60" height="30" as="geometry" />
        </mxCell>
        <mxCell id="PICA7tcWs6j3xRz3gB3K-50" value="complemento" style="text;html=1;align=center;verticalAlign=middle;resizable=0;points=[];autosize=1;strokeColor=none;fillColor=none;" vertex="1" parent="1">
          <mxGeometry x="449.99999999999994" y="316" width="100" height="30" as="geometry" />
        </mxCell>
        <mxCell id="PICA7tcWs6j3xRz3gB3K-51" value="" style="endArrow=oval;html=1;rounded=0;startArrow=none;startFill=0;endFill=0;" edge="1" parent="1">
          <mxGeometry width="50" height="50" relative="1" as="geometry">
            <mxPoint x="415.99999999999994" y="407" as="sourcePoint" />
            <mxPoint x="455.99999999999994" y="407" as="targetPoint" />
          </mxGeometry>
        </mxCell>
        <mxCell id="PICA7tcWs6j3xRz3gB3K-52" value="estado" style="text;html=1;align=center;verticalAlign=middle;resizable=0;points=[];autosize=1;strokeColor=none;fillColor=none;" vertex="1" parent="1">
          <mxGeometry x="451" y="391" width="60" height="30" as="geometry" />
        </mxCell>
        <mxCell id="PICA7tcWs6j3xRz3gB3K-53" value="" style="endArrow=oval;html=1;rounded=0;startArrow=none;startFill=0;endFill=1;" edge="1" parent="1">
          <mxGeometry width="50" height="50" relative="1" as="geometry">
            <mxPoint x="740" y="684" as="sourcePoint" />
            <mxPoint x="780" y="684" as="targetPoint" />
          </mxGeometry>
        </mxCell>
        <mxCell id="PICA7tcWs6j3xRz3gB3K-54" value="" style="endArrow=oval;html=1;rounded=0;startArrow=none;startFill=0;endFill=0;" edge="1" parent="1">
          <mxGeometry width="50" height="50" relative="1" as="geometry">
            <mxPoint x="740" y="706" as="sourcePoint" />
            <mxPoint x="780" y="706" as="targetPoint" />
          </mxGeometry>
        </mxCell>
        <mxCell id="PICA7tcWs6j3xRz3gB3K-55" value="" style="endArrow=oval;html=1;rounded=0;startArrow=none;startFill=0;endFill=0;" edge="1" parent="1">
          <mxGeometry width="50" height="50" relative="1" as="geometry">
            <mxPoint x="740" y="726" as="sourcePoint" />
            <mxPoint x="780" y="726" as="targetPoint" />
          </mxGeometry>
        </mxCell>
        <mxCell id="PICA7tcWs6j3xRz3gB3K-56" value="" style="endArrow=oval;html=1;rounded=0;startArrow=none;startFill=0;endFill=0;" edge="1" parent="1">
          <mxGeometry width="50" height="50" relative="1" as="geometry">
            <mxPoint x="740" y="748" as="sourcePoint" />
            <mxPoint x="780" y="748" as="targetPoint" />
          </mxGeometry>
        </mxCell>
        <mxCell id="PICA7tcWs6j3xRz3gB3K-57" value="" style="endArrow=oval;html=1;rounded=0;startArrow=none;startFill=0;endFill=0;" edge="1" parent="1">
          <mxGeometry width="50" height="50" relative="1" as="geometry">
            <mxPoint x="740" y="768" as="sourcePoint" />
            <mxPoint x="780" y="768" as="targetPoint" />
          </mxGeometry>
        </mxCell>
        <mxCell id="PICA7tcWs6j3xRz3gB3K-59" value="CPF (PK)" style="text;html=1;align=center;verticalAlign=middle;resizable=0;points=[];autosize=1;strokeColor=none;fillColor=none;" vertex="1" parent="1">
          <mxGeometry x="777" y="669" width="70" height="30" as="geometry" />
        </mxCell>
        <mxCell id="PICA7tcWs6j3xRz3gB3K-61" value="telefone" style="text;html=1;align=center;verticalAlign=middle;resizable=0;points=[];autosize=1;strokeColor=none;fillColor=none;" vertex="1" parent="1">
          <mxGeometry x="774.96" y="711" width="70" height="30" as="geometry" />
        </mxCell>
        <mxCell id="PICA7tcWs6j3xRz3gB3K-62" value="e-mail" style="text;html=1;align=center;verticalAlign=middle;resizable=0;points=[];autosize=1;strokeColor=none;fillColor=none;" vertex="1" parent="1">
          <mxGeometry x="775" y="732" width="60" height="30" as="geometry" />
        </mxCell>
        <mxCell id="PICA7tcWs6j3xRz3gB3K-63" value="endereÃ§o" style="text;html=1;align=center;verticalAlign=middle;resizable=0;points=[];autosize=1;strokeColor=none;fillColor=none;" vertex="1" parent="1">
          <mxGeometry x="777.96" y="751" width="70" height="30" as="geometry" />
        </mxCell>
        <mxCell id="PICA7tcWs6j3xRz3gB3K-64" value="" style="endArrow=none;html=1;rounded=0;" edge="1" parent="1">
          <mxGeometry width="50" height="50" relative="1" as="geometry">
            <mxPoint x="740" y="768" as="sourcePoint" />
            <mxPoint x="740" y="668" as="targetPoint" />
          </mxGeometry>
        </mxCell>
        <mxCell id="PICA7tcWs6j3xRz3gB3K-65" value="nome" style="text;html=1;align=center;verticalAlign=middle;resizable=0;points=[];autosize=1;strokeColor=none;fillColor=none;" vertex="1" parent="1">
          <mxGeometry x="777.96" y="691" width="50" height="30" as="geometry" />
        </mxCell>
        <mxCell id="PICA7tcWs6j3xRz3gB3K-66" value="" style="endArrow=oval;html=1;rounded=0;startArrow=none;startFill=0;endFill=1;" edge="1" parent="1">
          <mxGeometry width="50" height="50" relative="1" as="geometry">
            <mxPoint x="841.96" y="763.86" as="sourcePoint" />
            <mxPoint x="881.96" y="763.86" as="targetPoint" />
          </mxGeometry>
        </mxCell>
        <mxCell id="PICA7tcWs6j3xRz3gB3K-67" value="" style="endArrow=oval;html=1;rounded=0;startArrow=none;startFill=0;endFill=0;" edge="1" parent="1">
          <mxGeometry width="50" height="50" relative="1" as="geometry">
            <mxPoint x="846" y="788" as="sourcePoint" />
            <mxPoint x="886" y="788" as="targetPoint" />
          </mxGeometry>
        </mxCell>
        <mxCell id="PICA7tcWs6j3xRz3gB3K-68" value="" style="endArrow=oval;html=1;rounded=0;startArrow=none;startFill=0;endFill=0;" edge="1" parent="1">
          <mxGeometry width="50" height="50" relative="1" as="geometry">
            <mxPoint x="846" y="808" as="sourcePoint" />
            <mxPoint x="886" y="808" as="targetPoint" />
          </mxGeometry>
        </mxCell>
        <mxCell id="PICA7tcWs6j3xRz3gB3K-69" value="" style="endArrow=oval;html=1;rounded=0;startArrow=none;startFill=0;endFill=0;" edge="1" parent="1">
          <mxGeometry width="50" height="50" relative="1" as="geometry">
            <mxPoint x="846" y="830" as="sourcePoint" />
            <mxPoint x="886" y="830" as="targetPoint" />
          </mxGeometry>
        </mxCell>
        <mxCell id="PICA7tcWs6j3xRz3gB3K-70" value="" style="endArrow=oval;html=1;rounded=0;startArrow=none;startFill=0;endFill=0;" edge="1" parent="1">
          <mxGeometry width="50" height="50" relative="1" as="geometry">
            <mxPoint x="846" y="850" as="sourcePoint" />
            <mxPoint x="886" y="850" as="targetPoint" />
          </mxGeometry>
        </mxCell>
        <mxCell id="PICA7tcWs6j3xRz3gB3K-72" value="" style="endArrow=none;html=1;rounded=0;" edge="1" parent="1">
          <mxGeometry width="50" height="50" relative="1" as="geometry">
            <mxPoint x="845.96" y="884" as="sourcePoint" />
            <mxPoint x="845.96" y="764" as="targetPoint" />
          </mxGeometry>
        </mxCell>
        <mxCell id="PICA7tcWs6j3xRz3gB3K-73" value="rua" style="text;html=1;align=center;verticalAlign=middle;resizable=0;points=[];autosize=1;strokeColor=none;fillColor=none;" vertex="1" parent="1">
          <mxGeometry x="881.96" y="749" width="40" height="30" as="geometry" />
        </mxCell>
        <mxCell id="PICA7tcWs6j3xRz3gB3K-74" value="bairro" style="text;html=1;align=center;verticalAlign=middle;resizable=0;points=[];autosize=1;strokeColor=none;fillColor=none;" vertex="1" parent="1">
          <mxGeometry x="883.96" y="815" width="50" height="30" as="geometry" />
        </mxCell>
        <mxCell id="PICA7tcWs6j3xRz3gB3K-75" value="CEP" style="text;html=1;align=center;verticalAlign=middle;resizable=0;points=[];autosize=1;strokeColor=none;fillColor=none;" vertex="1" parent="1">
          <mxGeometry x="879.96" y="835" width="50" height="30" as="geometry" />
        </mxCell>
        <mxCell id="PICA7tcWs6j3xRz3gB3K-76" value="cidade" style="text;html=1;align=center;verticalAlign=middle;resizable=0;points=[];autosize=1;strokeColor=none;fillColor=none;" vertex="1" parent="1">
          <mxGeometry x="880.96" y="853" width="60" height="30" as="geometry" />
        </mxCell>
        <mxCell id="PICA7tcWs6j3xRz3gB3K-77" value="nÃºmero" style="text;html=1;align=center;verticalAlign=middle;resizable=0;points=[];autosize=1;strokeColor=none;fillColor=none;" vertex="1" parent="1">
          <mxGeometry x="882.96" y="772" width="60" height="30" as="geometry" />
        </mxCell>
        <mxCell id="PICA7tcWs6j3xRz3gB3K-78" value="" style="endArrow=oval;html=1;rounded=0;startArrow=none;startFill=0;endFill=0;" edge="1" parent="1">
          <mxGeometry width="50" height="50" relative="1" as="geometry">
            <mxPoint x="845.9599999999999" y="884" as="sourcePoint" />
            <mxPoint x="885.96" y="884" as="targetPoint" />
          </mxGeometry>
        </mxCell>
        <mxCell id="PICA7tcWs6j3xRz3gB3K-79" value="estado" style="text;html=1;align=center;verticalAlign=middle;resizable=0;points=[];autosize=1;strokeColor=none;fillColor=none;" vertex="1" parent="1">
          <mxGeometry x="880.96" y="868" width="60" height="30" as="geometry" />
        </mxCell>
        <mxCell id="PICA7tcWs6j3xRz3gB3K-82" value="" style="endArrow=oval;html=1;rounded=0;startArrow=none;startFill=0;endFill=0;" edge="1" parent="1">
          <mxGeometry width="50" height="50" relative="1" as="geometry">
            <mxPoint x="845.9599999999999" y="868" as="sourcePoint" />
            <mxPoint x="885.96" y="868" as="targetPoint" />
          </mxGeometry>
        </mxCell>
        <mxCell id="PICA7tcWs6j3xRz3gB3K-83" value="complemento" style="text;html=1;align=center;verticalAlign=middle;resizable=0;points=[];autosize=1;strokeColor=none;fillColor=none;" vertex="1" parent="1">
          <mxGeometry x="878" y="792" width="100" height="30" as="geometry" />
        </mxCell>
      </root>
    </mxGraphModel>
  </diagram>
</mxfile>
